<?xml version="1.0" encoding="utf-8"?>
<!-- Svg Vector Icons : http://www.onlinewebfonts.com/icon -->
<!DOCTYPE svg PUBLIC "-//W3C//DTD SVG 1.1//EN" "http://www.w3.org/Graphics/SVG/1.1/DTD/svg11.dtd">
<svg version="1.1" xmlns="http://www.w3.org/2000/svg" xmlns:xlink="http://www.w3.org/1999/xlink" x="0px" y="0px" viewBox="0 0 1000 1000" enable-background="new 0 0 1000 1000" xml:space="preserve">
<metadata> Svg Vector Icons : http://www.onlinewebfonts.com/icon </metadata>
<g><path d="M499.9,10C229.4,10,10,229.4,10,500c0,270.6,219.4,490,489.9,490C770.6,990,990,770.6,990,500C990,229.4,770.6,10,499.9,10z M499.9,955C248.6,955,45,751.3,45,500C45,248.7,248.6,45,499.9,45C751.3,45,955,248.7,955,500C955,751.3,751.3,955,499.9,955z"/><path d="M763.4,718.7H236.6c-10.4,0-18.8-8.4-18.8-18.6V299.9c0-10.3,8.4-18.6,18.8-18.6h526.8c10.3,0,18.8,8.3,18.8,18.6v400.2C782.2,710.3,773.7,718.7,763.4,718.7z M491.3,529.3c7.3,7.3,19.2,7.3,26.6,0l231.9-229.4H259.4L491.3,529.3z M575.3,498.8c21.8,16.7,143.3,110,188.1,144.3V312.7C722.4,353.3,634.1,440.6,575.3,498.8z M236.6,690.8c0,5.1,4.2,9.3,9.4,9.3h507.9c5.2,0,9.5-4.2,9.5-9.3v-24.4L562.1,511.8c-26.3,26.1-44.2,43.8-44.2,43.8c-7.3,7.3-19.2,7.3-26.6,0L443,507.9L236.6,666.4L236.6,690.8L236.6,690.8z M236.6,643.1c45.1-34.5,157.2-120.7,193.3-148.3l-192.1-190c-0.7,1.3-1.2,2.8-1.2,4.3V643.1z"/></g>
</svg>